<svg xmlns="http://www.w3.org/2000/svg" width="277.94" height="85.136" viewBox="0 0 277.94 85.136">
  <g id="Group_58" data-name="Group 58" transform="translate(-818 -188.864)">
    <path id="Path_43" data-name="Path 43" d="M4.278-44.268V0h31.31V-8.184H14.012V-44.268Zm44.578,22.32a24.224,24.224,0,0,1,.651-5.642,14.942,14.942,0,0,1,2.077-4.867,10.536,10.536,0,0,1,3.72-3.41,11.363,11.363,0,0,1,5.58-1.271,11.363,11.363,0,0,1,5.58,1.271,10.536,10.536,0,0,1,3.72,3.41,14.942,14.942,0,0,1,2.077,4.867,24.224,24.224,0,0,1,.651,5.642,22.535,22.535,0,0,1-.651,5.425,14.661,14.661,0,0,1-2.077,4.743A10.645,10.645,0,0,1,66.464-8.4a11.363,11.363,0,0,1-5.58,1.271A11.363,11.363,0,0,1,55.3-8.4a10.645,10.645,0,0,1-3.72-3.379,14.661,14.661,0,0,1-2.077-4.743A22.535,22.535,0,0,1,48.856-21.948Zm-9.734,0a26.737,26.737,0,0,0,1.488,9.021,21.545,21.545,0,0,0,4.278,7.285A19.6,19.6,0,0,0,51.739-.775,22.7,22.7,0,0,0,60.884.992,22.641,22.641,0,0,0,70.06-.775a19.664,19.664,0,0,0,6.82-4.867,21.545,21.545,0,0,0,4.278-7.285,26.737,26.737,0,0,0,1.488-9.021,27.66,27.66,0,0,0-1.488-9.207,22.116,22.116,0,0,0-4.278-7.409,19.631,19.631,0,0,0-6.82-4.96,22.3,22.3,0,0,0-9.176-1.8,22.36,22.36,0,0,0-9.145,1.8,19.56,19.56,0,0,0-6.851,4.96,22.116,22.116,0,0,0-4.278,7.409A27.66,27.66,0,0,0,39.122-21.948Zm82.15,16.926L122.264,0h6.2V-23.932h-18.6v7.254h9.8a10.644,10.644,0,0,1-3.069,7.1Q113.956-7.13,109.12-7.13A11.363,11.363,0,0,1,103.54-8.4a10.645,10.645,0,0,1-3.72-3.379,14.661,14.661,0,0,1-2.077-4.743,22.535,22.535,0,0,1-.651-5.425,24.224,24.224,0,0,1,.651-5.642,14.942,14.942,0,0,1,2.077-4.867,10.536,10.536,0,0,1,3.72-3.41,11.363,11.363,0,0,1,5.58-1.271,9.737,9.737,0,0,1,6.014,1.86,9.314,9.314,0,0,1,3.348,5.58h9.3a16.524,16.524,0,0,0-2.046-6.7,16.469,16.469,0,0,0-4.247-4.9,18.709,18.709,0,0,0-5.766-3.007,21.509,21.509,0,0,0-6.6-1.023,22.36,22.36,0,0,0-9.145,1.8,19.56,19.56,0,0,0-6.851,4.96,22.116,22.116,0,0,0-4.278,7.409,27.66,27.66,0,0,0-1.488,9.207,26.737,26.737,0,0,0,1.488,9.021,21.545,21.545,0,0,0,4.278,7.285A19.6,19.6,0,0,0,99.975-.775,22.7,22.7,0,0,0,109.12.992a16.311,16.311,0,0,0,6.386-1.333A14.589,14.589,0,0,0,121.272-5.022ZM144.15-21.948a24.224,24.224,0,0,1,.651-5.642,14.942,14.942,0,0,1,2.077-4.867,10.536,10.536,0,0,1,3.72-3.41,11.363,11.363,0,0,1,5.58-1.271,11.363,11.363,0,0,1,5.58,1.271,10.536,10.536,0,0,1,3.72,3.41,14.942,14.942,0,0,1,2.077,4.867,24.224,24.224,0,0,1,.651,5.642,22.534,22.534,0,0,1-.651,5.425,14.661,14.661,0,0,1-2.077,4.743,10.645,10.645,0,0,1-3.72,3.379,11.363,11.363,0,0,1-5.58,1.271A11.363,11.363,0,0,1,150.6-8.4a10.645,10.645,0,0,1-3.72-3.379,14.661,14.661,0,0,1-2.077-4.743A22.534,22.534,0,0,1,144.15-21.948Zm-9.734,0a26.737,26.737,0,0,0,1.488,9.021,21.545,21.545,0,0,0,4.278,7.285,19.6,19.6,0,0,0,6.851,4.867A22.7,22.7,0,0,0,156.178.992a22.641,22.641,0,0,0,9.176-1.767,19.664,19.664,0,0,0,6.82-4.867,21.545,21.545,0,0,0,4.278-7.285,26.736,26.736,0,0,0,1.488-9.021,27.66,27.66,0,0,0-1.488-9.207,22.116,22.116,0,0,0-4.278-7.409,19.631,19.631,0,0,0-6.82-4.96,22.3,22.3,0,0,0-9.176-1.8,22.36,22.36,0,0,0-9.145,1.8,19.56,19.56,0,0,0-6.851,4.96,22.116,22.116,0,0,0-4.278,7.409A27.661,27.661,0,0,0,134.416-21.948Z" transform="translate(918 256)" fill="#201e50"/>
    <path id="Exclusion_1" data-name="Exclusion 1" d="M23.9,85.136h0L0,23.6a32.546,32.546,0,0,0,3.742.186A44.46,44.46,0,0,0,19.1,21.09,33.949,33.949,0,0,0,36.11,7.516a19.916,19.916,0,0,1,5.2-5.685A9.641,9.641,0,0,1,46.826,0c10.258,0,21.149,17.828,27.747,45.42a28.75,28.75,0,0,1,.457,12.337,22.953,22.953,0,0,1-4.323,9.482,35.391,35.391,0,0,1-12.715,9.876A72.785,72.785,0,0,1,42.5,82.48,107.3,107.3,0,0,1,23.9,85.136ZM35.059,28.275V58.411H56.373V52.839H41.685V28.275Z" transform="translate(818 188.864)" fill="#ff9000"/>
  </g>
</svg>
